<svg id="visual" viewBox="0 0 900 600" width="900" height="600" xmlns="http://www.w3.org/2000/svg" xmlns:xlink="http://www.w3.org/1999/xlink" version="1.1"><rect x="0" y="0" width="900" height="600" fill="#FFFFFF"></rect><path d="M0 425L21.5 418.7C43 412.3 86 399.7 128.8 409.5C171.7 419.3 214.3 451.7 257.2 458.8C300 466 343 448 385.8 448.5C428.7 449 471.3 468 514.2 477.5C557 487 600 487 642.8 469.8C685.7 452.7 728.3 418.3 771.2 407.2C814 396 857 408 878.5 414L900 420L900 601L878.5 601C857 601 814 601 771.2 601C728.3 601 685.7 601 642.8 601C600 601 557 601 514.2 601C471.3 601 428.7 601 385.8 601C343 601 300 601 257.2 601C214.3 601 171.7 601 128.8 601C86 601 43 601 21.5 601L0 601Z" fill="#ff00aa" stroke-linecap="round" stroke-linejoin="miter"></path></svg>